<svg xmlns="http://www.w3.org/2000/svg" xmlns:xlink="http://www.w3.org/1999/xlink" width="500" zoomAndPan="magnify" viewBox="0 0 375 374.999991" height="500" preserveAspectRatio="xMidYMid meet" version="1.0"><defs><g/></defs><path fill="#ffffff" d="M 141.589844 160.277344 L 261.511719 160.277344 L 261.511719 219.824219 L 141.589844 219.824219 Z M 141.589844 160.277344 " fill-opacity="1" fill-rule="nonzero"/><path fill="#000000" d="M 246.996094 225.828125 L 239.738281 225.828125 L 239.738281 213.753906 L 246.996094 213.753906 Z M 232.484375 225.828125 L 225.226562 225.828125 L 225.226562 213.753906 L 232.484375 213.753906 Z M 217.96875 225.828125 L 210.714844 225.828125 L 210.714844 213.753906 L 217.96875 213.753906 Z M 203.457031 225.828125 L 196.199219 225.828125 L 196.199219 213.753906 L 203.457031 213.753906 Z M 189.007812 225.828125 L 181.75 225.828125 L 181.75 213.753906 L 189.007812 213.753906 Z M 174.492188 225.828125 L 167.238281 225.828125 L 167.238281 213.753906 L 174.492188 213.753906 Z M 159.980469 225.828125 L 152.722656 225.828125 L 152.722656 213.753906 L 159.980469 213.753906 Z M 147.59375 209.253906 L 135.519531 209.253906 L 135.519531 201.996094 L 147.59375 201.996094 Z M 267.515625 201.621094 L 255.441406 201.621094 L 255.441406 194.367188 L 267.515625 194.367188 Z M 147.59375 194.742188 L 135.519531 194.742188 L 135.519531 187.484375 L 147.59375 187.484375 Z M 267.515625 187.109375 L 255.441406 187.109375 L 255.441406 179.855469 L 267.515625 179.855469 Z M 147.59375 180.230469 L 135.519531 180.230469 L 135.519531 172.976562 L 147.59375 172.976562 Z M 244.871094 166.28125 L 237.613281 166.28125 L 237.613281 154.210938 L 244.871094 154.210938 Z M 230.355469 166.28125 L 223.101562 166.28125 L 223.101562 154.210938 L 230.355469 154.210938 Z M 215.84375 166.28125 L 208.585938 166.28125 L 208.585938 154.210938 L 215.84375 154.210938 Z M 201.332031 166.28125 L 194.074219 166.28125 L 194.074219 154.210938 L 201.332031 154.210938 Z M 186.878906 166.28125 L 179.625 166.28125 L 179.625 154.210938 L 186.878906 154.210938 Z M 172.367188 166.28125 L 165.109375 166.28125 L 165.109375 154.210938 L 172.367188 154.210938 Z M 157.855469 166.28125 L 150.597656 166.28125 L 150.597656 154.210938 L 157.855469 154.210938 Z M 157.855469 166.28125 " fill-opacity="1" fill-rule="nonzero"/><path fill="#000000" d="M 242.367188 118.121094 L 244.246094 118.121094 L 244.246094 154.398438 L 242.367188 154.398438 Z M 242.367188 118.121094 " fill-opacity="1" fill-rule="nonzero"/><path fill="#000000" d="M 242.367188 118.121094 L 280.527344 118.121094 L 280.527344 120.625 L 242.367188 120.625 Z M 242.367188 118.121094 " fill-opacity="1" fill-rule="nonzero"/><path fill="#000000" d="M 280.902344 123.3125 C 285.28125 123.3125 285.28125 116.558594 280.902344 116.558594 C 276.523438 116.558594 276.523438 123.3125 280.902344 123.3125 Z M 280.902344 123.3125 " fill-opacity="1" fill-rule="nonzero"/><path fill="#000000" d="M 226.101562 93.730469 L 228.605469 93.730469 L 228.605469 154.398438 L 226.101562 154.398438 Z M 226.101562 93.730469 " fill-opacity="1" fill-rule="nonzero"/><path fill="#000000" d="M 226.101562 93.730469 L 255.503906 93.730469 L 255.503906 95.605469 L 226.101562 95.605469 Z M 226.101562 93.730469 " fill-opacity="1" fill-rule="nonzero"/><path fill="#000000" d="M 253.628906 75.589844 L 255.503906 75.589844 L 255.503906 95.605469 L 253.628906 95.605469 Z M 253.628906 75.589844 " fill-opacity="1" fill-rule="nonzero"/><path fill="#000000" d="M 254.316406 79.09375 C 258.695312 79.09375 258.695312 72.339844 254.316406 72.339844 C 249.9375 72.339844 249.9375 79.09375 254.316406 79.09375 Z M 254.316406 79.09375 " fill-opacity="1" fill-rule="nonzero"/><path fill="#000000" d="M 210.464844 73.089844 L 212.964844 73.089844 L 212.964844 154.398438 L 210.464844 154.398438 Z M 210.464844 73.089844 " fill-opacity="1" fill-rule="nonzero"/><path fill="#000000" d="M 197.328125 109.367188 L 199.203125 109.367188 L 199.203125 154.398438 L 197.328125 154.398438 Z M 197.328125 109.367188 " fill-opacity="1" fill-rule="nonzero"/><path fill="#000000" d="M 181.6875 127.503906 L 183.566406 127.503906 L 183.566406 154.398438 L 181.6875 154.398438 Z M 181.6875 127.503906 " fill-opacity="1" fill-rule="nonzero"/><path fill="#000000" d="M 163.546875 127.503906 L 181.6875 127.503906 L 181.6875 129.378906 L 163.546875 129.378906 Z M 163.546875 127.503906 " fill-opacity="1" fill-rule="nonzero"/><path fill="#000000" d="M 161.042969 95.605469 L 163.546875 95.605469 L 163.546875 129.378906 L 161.042969 129.378906 Z M 161.042969 95.605469 " fill-opacity="1" fill-rule="nonzero"/><path fill="#000000" d="M 167.925781 138.761719 L 170.429688 138.761719 L 170.429688 154.398438 L 167.925781 154.398438 Z M 167.925781 138.761719 " fill-opacity="1" fill-rule="nonzero"/><path fill="#000000" d="M 145.40625 138.761719 L 167.925781 138.761719 L 167.925781 140.640625 L 145.40625 140.640625 Z M 145.40625 138.761719 " fill-opacity="1" fill-rule="nonzero"/><path fill="#000000" d="M 154.164062 147.519531 L 156.664062 147.519531 L 156.664062 154.398438 L 154.164062 154.398438 Z M 154.164062 147.519531 " fill-opacity="1" fill-rule="nonzero"/><path fill="#000000" d="M 114.128906 147.519531 L 154.164062 147.519531 L 154.164062 150.019531 L 114.128906 150.019531 Z M 114.128906 147.519531 " fill-opacity="1" fill-rule="nonzero"/><path fill="#000000" d="M 113.75 153.335938 C 118.132812 153.335938 118.132812 146.582031 113.75 146.582031 C 109.433594 146.582031 109.433594 153.335938 113.75 153.335938 Z M 113.75 153.335938 " fill-opacity="1" fill-rule="nonzero"/><path fill="#000000" d="M 144.152344 143.953125 C 148.535156 143.953125 148.535156 137.199219 144.152344 137.199219 C 139.773438 137.199219 139.773438 143.953125 144.152344 143.953125 Z M 144.152344 143.953125 " fill-opacity="1" fill-rule="nonzero"/><path fill="#000000" d="M 161.355469 100.109375 C 165.734375 100.109375 165.734375 93.355469 161.355469 93.355469 C 156.976562 93.355469 157.039062 100.109375 161.355469 100.109375 Z M 161.355469 100.109375 " fill-opacity="1" fill-rule="nonzero"/><path fill="#000000" d="M 196.953125 113.242188 C 201.332031 113.242188 201.332031 106.488281 196.953125 106.488281 C 192.636719 106.488281 192.636719 113.242188 196.953125 113.242188 Z M 196.953125 113.242188 " fill-opacity="1" fill-rule="nonzero"/><path fill="#000000" d="M 210.839844 75.777344 C 215.21875 75.777344 215.21875 69.023438 210.839844 69.023438 C 206.460938 69.023438 206.460938 75.777344 210.839844 75.777344 Z M 210.839844 75.777344 " fill-opacity="1" fill-rule="nonzero"/><path fill="#000000" d="M 266.765625 181.292969 L 300.542969 181.292969 L 300.542969 183.796875 L 266.765625 183.796875 Z M 266.765625 181.292969 " fill-opacity="1" fill-rule="nonzero"/><path fill="#000000" d="M 266.765625 196.929688 L 293.664062 196.929688 L 293.664062 199.433594 L 266.765625 199.433594 Z M 266.765625 196.929688 " fill-opacity="1" fill-rule="nonzero"/><path fill="#000000" d="M 291.785156 199.433594 L 293.664062 199.433594 L 293.664062 230.707031 L 291.785156 230.707031 Z M 291.785156 199.433594 " fill-opacity="1" fill-rule="nonzero"/><path fill="#000000" d="M 300.417969 186.296875 C 304.796875 186.296875 304.796875 179.542969 300.417969 179.542969 C 296.039062 179.542969 296.039062 186.296875 300.417969 186.296875 Z M 300.417969 186.296875 " fill-opacity="1" fill-rule="nonzero"/><path fill="#000000" d="M 292.914062 234.644531 C 297.292969 234.644531 297.292969 227.890625 292.914062 227.890625 C 288.535156 227.890625 288.535156 234.644531 292.914062 234.644531 Z M 292.914062 234.644531 " fill-opacity="1" fill-rule="nonzero"/><path fill="#000000" d="M 242.367188 226.328125 L 244.246094 226.328125 L 244.246094 264.480469 L 242.367188 264.480469 Z M 242.367188 226.328125 " fill-opacity="1" fill-rule="nonzero"/><path fill="#000000" d="M 242.367188 264.480469 L 280.527344 264.480469 L 280.527344 266.355469 L 242.367188 266.355469 Z M 242.367188 264.480469 " fill-opacity="1" fill-rule="nonzero"/><path fill="#000000" d="M 228.605469 226.328125 L 231.109375 226.328125 L 231.109375 280.117188 L 228.605469 280.117188 Z M 228.605469 226.328125 " fill-opacity="1" fill-rule="nonzero"/><path fill="#000000" d="M 228.605469 280.117188 L 264.886719 280.117188 L 264.886719 282.621094 L 228.605469 282.621094 Z M 228.605469 280.117188 " fill-opacity="1" fill-rule="nonzero"/><path fill="#000000" d="M 212.964844 226.328125 L 214.84375 226.328125 L 214.84375 280.117188 L 212.964844 280.117188 Z M 212.964844 226.328125 " fill-opacity="1" fill-rule="nonzero"/><path fill="#000000" d="M 199.328125 302.632812 L 172.304688 302.632812 L 172.304688 300.132812 L 198.390625 300.132812 L 199.203125 299.695312 L 199.203125 223.824219 L 201.707031 223.824219 L 201.707031 300.632812 Z M 199.328125 302.632812 " fill-opacity="1" fill-rule="nonzero"/><path fill="#000000" d="M 183.566406 223.824219 L 186.066406 223.824219 L 186.066406 284.496094 L 183.566406 284.496094 Z M 183.566406 223.824219 " fill-opacity="1" fill-rule="nonzero"/><path fill="#000000" d="M 167.800781 295.753906 L 145.40625 295.753906 L 145.40625 293.878906 L 166.863281 293.878906 L 167.925781 293 L 167.925781 221.949219 L 170.429688 221.949219 L 170.429688 293.878906 Z M 167.800781 295.753906 " fill-opacity="1" fill-rule="nonzero"/><path fill="#000000" d="M 154.351562 257.601562 L 127.265625 257.601562 L 127.265625 255.722656 L 153.414062 255.722656 L 154.164062 254.785156 L 154.164062 221.949219 L 156.664062 221.949219 L 156.664062 255.660156 Z M 154.351562 257.601562 " fill-opacity="1" fill-rule="nonzero"/><path fill="#000000" d="M 280.152344 269.109375 C 284.53125 269.109375 284.53125 262.355469 280.152344 262.355469 C 275.773438 262.355469 275.773438 269.109375 280.152344 269.109375 Z M 280.152344 269.109375 " fill-opacity="1" fill-rule="nonzero"/><path fill="#000000" d="M 264.011719 285.183594 C 268.390625 285.183594 268.390625 278.429688 264.011719 278.429688 C 259.632812 278.429688 259.695312 285.183594 264.011719 285.183594 Z M 264.011719 285.183594 " fill-opacity="1" fill-rule="nonzero"/><path fill="#000000" d="M 213.089844 284.058594 C 217.46875 284.058594 217.46875 277.300781 213.089844 277.300781 C 208.710938 277.300781 208.710938 284.058594 213.089844 284.058594 Z M 213.089844 284.058594 " fill-opacity="1" fill-rule="nonzero"/><path fill="#000000" d="M 183.816406 288.9375 C 188.195312 288.9375 188.195312 282.179688 183.816406 282.179688 C 179.5 282.179688 179.5 288.9375 183.816406 288.9375 Z M 183.816406 288.9375 " fill-opacity="1" fill-rule="nonzero"/><path fill="#000000" d="M 171.867188 305.824219 C 176.246094 305.824219 176.246094 299.070312 171.867188 299.070312 C 167.488281 299.070312 167.488281 305.824219 171.867188 305.824219 Z M 171.867188 305.824219 " fill-opacity="1" fill-rule="nonzero"/><path fill="#000000" d="M 144.46875 298.316406 C 148.847656 298.316406 148.847656 291.5625 144.46875 291.5625 C 140.152344 291.5625 140.152344 298.316406 144.46875 298.316406 Z M 144.46875 298.316406 " fill-opacity="1" fill-rule="nonzero"/><path fill="#000000" d="M 126.136719 260.476562 C 130.515625 260.476562 130.515625 253.722656 126.136719 253.722656 C 121.757812 253.722656 121.757812 260.476562 126.136719 260.476562 Z M 126.136719 260.476562 " fill-opacity="1" fill-rule="nonzero"/><path fill="#000000" d="M 93.484375 174.414062 L 138.523438 174.414062 L 138.523438 176.914062 L 93.484375 176.914062 Z M 93.484375 174.414062 " fill-opacity="1" fill-rule="nonzero"/><path fill="#000000" d="M 75.96875 190.050781 L 141.027344 190.050781 L 141.027344 192.550781 L 75.96875 192.550781 Z M 75.96875 190.050781 " fill-opacity="1" fill-rule="nonzero"/><path fill="#000000" d="M 73.464844 151.898438 L 75.96875 151.898438 L 75.96875 192.550781 L 73.464844 192.550781 Z M 73.464844 151.898438 " fill-opacity="1" fill-rule="nonzero"/><path fill="#000000" d="M 98.488281 235.082031 L 95.984375 235.082031 L 95.984375 205.3125 L 97.175781 203.8125 L 141.027344 203.8125 L 141.027344 205.6875 L 98.113281 205.6875 L 98.488281 206.25 Z M 98.488281 235.082031 " fill-opacity="1" fill-rule="nonzero"/><path fill="#000000" d="M 74.402344 155.960938 C 78.78125 155.960938 78.78125 149.207031 74.402344 149.207031 C 70.085938 149.207031 70.085938 155.960938 74.402344 155.960938 Z M 74.402344 155.960938 " fill-opacity="1" fill-rule="nonzero"/><path fill="#000000" d="M 93.921875 179.167969 C 98.300781 179.167969 98.300781 172.414062 93.921875 172.414062 C 89.542969 172.414062 89.542969 179.167969 93.921875 179.167969 Z M 93.921875 179.167969 " fill-opacity="1" fill-rule="nonzero"/><path fill="#000000" d="M 96.171875 239.460938 C 100.550781 239.460938 100.550781 232.707031 96.171875 232.707031 C 91.792969 232.769531 91.792969 239.460938 96.171875 239.460938 Z M 96.171875 239.460938 " fill-opacity="1" fill-rule="nonzero"/><g fill="#008037" fill-opacity="1"><g transform="translate(139.98373, 260.146814)"><g><path d="M 20.953125 0 L 20.953125 -138.609375 L 73.484375 -138.609375 C 82.015625 -138.609375 89.25 -137.25 95.1875 -134.53125 C 101.132812 -131.8125 105.609375 -127.941406 108.609375 -122.921875 C 111.609375 -117.898438 113.109375 -111.910156 113.109375 -104.953125 C 113.109375 -98.953125 111.476562 -93.515625 108.21875 -88.640625 C 104.96875 -83.773438 100.304688 -79.984375 94.234375 -77.265625 L 94.234375 -75.28125 C 103.460938 -73 110.460938 -68.859375 115.234375 -62.859375 C 120.015625 -56.859375 122.40625 -49.304688 122.40625 -40.203125 C 122.40625 -27.304688 118.625 -17.378906 111.0625 -10.421875 C 103.507812 -3.472656 92.304688 0 77.453125 0 Z M 72.71875 -80.40625 C 80.363281 -80.40625 86.300781 -82.410156 90.53125 -86.421875 C 94.769531 -90.429688 96.890625 -95.945312 96.890625 -102.96875 C 96.890625 -110.363281 94.851562 -115.910156 90.78125 -119.609375 C 86.707031 -123.304688 80.6875 -125.15625 72.71875 -125.15625 L 37.265625 -125.15625 L 37.265625 -80.40625 Z M 76.234375 -13.46875 C 95.953125 -13.46875 105.8125 -22.378906 105.8125 -40.203125 C 105.8125 -58.023438 95.953125 -66.9375 76.234375 -66.9375 L 37.265625 -66.9375 L 37.265625 -13.46875 Z M 76.234375 -13.46875 "/></g></g></g></svg>