<svg width="35" height="35" viewBox="0 0 35 35" fill="none" xmlns="http://www.w3.org/2000/svg">
<path d="M20.4167 13.5618V17.7909H24.2083C24.5 17.7909 24.6458 18.0826 24.6458 18.3743L24.0625 21.1451C24.0625 21.2909 23.7708 21.4368 23.625 21.4368H20.4167V32.0826H16.0417V21.5826H13.5625C13.2708 21.5826 13.125 21.4368 13.125 21.1451V18.3743C13.125 18.0826 13.2708 17.9368 13.5625 17.9368H16.0417V13.1243C16.0417 10.6451 17.9375 8.74927 20.4167 8.74927H24.3542C24.6458 8.74927 24.7917 8.8951 24.7917 9.18677V12.6868C24.7917 12.9784 24.6458 13.1243 24.3542 13.1243H20.8542C20.5625 13.1243 20.4167 13.2701 20.4167 13.5618Z" stroke="#2D2D2D" stroke-width="1.5" stroke-miterlimit="10" stroke-linecap="round"/>
<path d="M21.8763 32.0824H13.1263C5.83464 32.0824 2.91797 29.1658 2.91797 21.8741V13.1241C2.91797 5.83244 5.83464 2.91577 13.1263 2.91577H21.8763C29.168 2.91577 32.0846 5.83244 32.0846 13.1241V21.8741C32.0846 29.1658 29.168 32.0824 21.8763 32.0824Z" stroke="#2D2D2D" stroke-width="1.5" stroke-linecap="round" stroke-linejoin="round"/>
</svg>
