<svg width="56" height="55" viewBox="0 0 56 55" fill="none" xmlns="http://www.w3.org/2000/svg">
<rect x="0.5" width="55" height="55" rx="9.02597" fill="#CDEEDB"/>
<path d="M30.9167 36.25H25.0833M30.9167 36.25C30.9167 35.4176 30.9167 35.0013 30.9611 34.7251C31.1044 33.8345 31.1294 33.7784 31.6974 33.0775C31.8735 32.8602 32.5273 32.2748 33.8348 31.104C35.624 29.5019 36.75 27.1741 36.75 24.5833C36.75 19.7509 32.8325 15.8333 28 15.8333C23.1675 15.8333 19.25 19.7509 19.25 24.5833C19.25 27.1741 20.376 29.5019 22.1652 31.104C23.4727 32.2748 24.1265 32.8602 24.3026 33.0775C24.8706 33.7784 24.8956 33.8345 25.0389 34.7251C25.0833 35.0013 25.0833 35.4176 25.0833 36.25M30.9167 36.25C30.9167 37.3404 30.9167 37.8856 30.6822 38.2917C30.5286 38.5577 30.3077 38.7786 30.0417 38.9322C29.6356 39.1667 29.0904 39.1667 28 39.1667C26.9096 39.1667 26.3644 39.1667 25.9583 38.9322C25.6923 38.7786 25.4714 38.5577 25.3178 38.2917C25.0833 37.8856 25.0833 37.3404 25.0833 36.25" stroke="#008037" stroke-width="1.5"/>
<path d="M28.9177 23.4167L26.4177 26.9167H29.9177L27.4177 30.4167" stroke="#008037" stroke-width="1.5" stroke-linecap="round" stroke-linejoin="round"/>
</svg>
