<svg width="52" height="48" viewBox="0 0 52 48" fill="none" xmlns="http://www.w3.org/2000/svg">
<rect opacity="0.2" width="52" height="48" rx="10" fill="#008037"/>
<path d="M29.5 21L29.6716 21.1716C31.0049 22.5049 31.6716 23.1716 31.6716 24C31.6716 24.8284 31.0049 25.4951 29.6716 26.8284L29.5 27" stroke="#008037" stroke-width="1.5" stroke-linecap="round"/>
<path d="M27.293 19.1704L25.9989 24L24.7048 28.8297" stroke="#008037" stroke-width="1.5" stroke-linecap="round"/>
<path d="M22.4997 21L22.3281 21.1716C20.9948 22.5049 20.3281 23.1716 20.3281 24C20.3281 24.8284 20.9948 25.4951 22.3281 26.8284L22.4997 27" stroke="#008037" stroke-width="1.5" stroke-linecap="round"/>
<path d="M16 24C16 19.286 16 16.9289 17.4645 15.4645C18.9289 14 21.286 14 26 14C30.714 14 33.0711 14 34.5355 15.4645C36 16.9289 36 19.286 36 24C36 28.714 36 31.0711 34.5355 32.5355C33.0711 34 30.714 34 26 34C21.286 34 18.9289 34 17.4645 32.5355C16 31.0711 16 28.714 16 24Z" stroke="#008037" stroke-width="1.5"/>
</svg>
