<svg width="56" height="55" viewBox="0 0 56 55" fill="none" xmlns="http://www.w3.org/2000/svg">
<rect x="0.5" width="55" height="55" rx="9.02597" fill="#CDEEDB"/>
<circle cx="25.6667" cy="20.5" r="4.66667" stroke="#008037" stroke-width="1.5"/>
<path d="M34.9987 33.9167C34.9987 36.8162 34.9987 39.1667 25.6654 39.1667C16.332 39.1667 16.332 36.8162 16.332 33.9167C16.332 31.0172 20.5107 28.6667 25.6654 28.6667C30.82 28.6667 34.9987 31.0172 34.9987 33.9167Z" stroke="#008037" stroke-width="1.5"/>
<path d="M35.0513 27.9265L35.495 27.3218H35.495L35.0513 27.9265ZM36.168 23.6399L35.6493 24.1816C35.9393 24.4593 36.3966 24.4593 36.6867 24.1816L36.168 23.6399ZM37.2846 27.9265L36.841 27.3218L36.841 27.3218L37.2846 27.9265ZM36.168 28.4655L36.168 29.2155H36.168L36.168 28.4655ZM35.495 27.3218C35.0039 26.9615 34.4583 26.5083 34.0428 26.0279C33.6077 25.5248 33.418 25.1095 33.418 24.8128H31.918C31.918 25.6647 32.4077 26.4304 32.9082 27.0091C33.4283 27.6105 34.0744 28.14 34.6076 28.5312L35.495 27.3218ZM33.418 24.8128C33.418 24.0974 33.7493 23.751 34.0755 23.6366C34.4227 23.5149 35.0112 23.5707 35.6493 24.1816L36.6867 23.0982C35.7498 22.2011 34.5883 21.8673 33.5793 22.2211C32.5492 22.5822 31.918 23.5762 31.918 24.8128H33.418ZM37.7283 28.5312C38.2615 28.14 38.9076 27.6105 39.4277 27.0091C39.9282 26.4304 40.418 25.6647 40.418 24.8128H38.918C38.918 25.1095 38.7282 25.5249 38.2931 26.0279C37.8777 26.5083 37.3321 26.9615 36.841 27.3218L37.7283 28.5312ZM40.418 24.8128C40.418 23.5762 39.7868 22.5822 38.7567 22.2211C37.7476 21.8673 36.5862 22.2011 35.6493 23.0982L36.6867 24.1816C37.3247 23.5707 37.9133 23.5149 38.2605 23.6366C38.5866 23.751 38.918 24.0974 38.918 24.8128H40.418ZM34.6076 28.5312C35.0462 28.853 35.495 29.2155 36.168 29.2155L36.168 27.7155C36.1162 27.7155 36.0788 27.709 36.0001 27.6675C35.8898 27.6093 35.7562 27.5135 35.495 27.3218L34.6076 28.5312ZM36.841 27.3218C36.5797 27.5135 36.4461 27.6093 36.3359 27.6675C36.2572 27.709 36.2197 27.7155 36.168 27.7155L36.168 29.2155C36.8409 29.2155 37.2897 28.853 37.7283 28.5312L36.841 27.3218Z" fill="#008037"/>
</svg>
