<svg width="56" height="55" viewBox="0 0 56 55" fill="none" xmlns="http://www.w3.org/2000/svg">
<rect x="0.5" width="55" height="55" rx="9.02597" fill="#CDEEDB"/>
<path d="M25.8427 23.7692L25.4009 24.3753H25.4009L25.8427 23.7692ZM28.0013 17.1239L27.4938 17.676C27.7807 17.9398 28.2219 17.9398 28.5089 17.676L28.0013 17.1239ZM30.1599 23.7692L30.6017 24.3753H30.6017L30.1599 23.7692ZM28.0013 24.7887L28.0013 25.5387H28.0013L28.0013 24.7887ZM26.2845 23.1632C25.4756 22.5735 24.6082 21.8532 23.9503 21.0906C23.2744 20.3072 22.918 19.5919 22.918 19.0006H21.418C21.418 20.1419 22.0683 21.2055 22.8145 22.0704C23.5787 22.9563 24.5486 23.754 25.4009 24.3753L26.2845 23.1632ZM22.918 19.0006C22.918 17.7188 23.5526 16.9618 24.3395 16.697C25.153 16.4232 26.3337 16.6097 27.4938 17.676L28.5089 16.5717C27.044 15.2252 25.308 14.7884 23.8611 15.2753C22.3876 15.7712 21.418 17.1589 21.418 19.0006H22.918ZM30.6017 24.3753C31.454 23.7541 32.4239 22.9563 33.1881 22.0705C33.9343 21.2055 34.5846 20.1419 34.5846 19.0006H33.0846C33.0846 19.5919 32.7282 20.3072 32.0523 21.0907C31.3945 21.8533 30.527 22.5735 29.7182 23.1632L30.6017 24.3753ZM34.5846 19.0006C34.5846 17.1589 33.615 15.7712 32.1415 15.2753C30.6946 14.7884 28.9586 15.2252 27.4938 16.5717L28.5089 17.676C29.6689 16.6097 30.8496 16.4232 31.6631 16.697C32.45 16.9618 33.0846 17.7188 33.0846 19.0006H34.5846ZM25.4009 24.3753C26.2892 25.0228 26.9545 25.5387 28.0013 25.5387L28.0013 24.0387C27.5277 24.0387 27.2608 23.8749 26.2845 23.1632L25.4009 24.3753ZM29.7182 23.1632C28.7418 23.8749 28.4749 24.0387 28.0013 24.0387L28.0013 25.5387C29.0481 25.5387 29.7135 25.0228 30.6017 24.3753L29.7182 23.1632Z" fill="#008037"/>
<path d="M18.668 38.4531H21.3046C22.4839 38.4531 23.6759 38.576 24.8237 38.8124C26.854 39.2307 28.9916 39.2814 31.0427 38.9494C32.0541 38.7857 33.0484 38.5354 33.9484 38.101C34.7608 37.7088 35.7561 37.156 36.4246 36.5369C37.0921 35.9186 37.7873 34.9068 38.2807 34.1159C38.7038 33.4376 38.4992 32.6056 37.8299 32.1002C37.0865 31.5389 35.9833 31.539 35.24 32.1005L33.1316 33.6932C32.3145 34.3104 31.4219 34.8786 30.3586 35.0482C30.2308 35.0686 30.0968 35.0872 29.9571 35.1034M29.9571 35.1034C29.915 35.1083 29.8724 35.1129 29.8293 35.1174M29.9571 35.1034C30.1271 35.0669 30.2961 34.9621 30.4545 34.8237C31.2049 34.1688 31.2524 33.065 30.6013 32.3336C30.4502 32.164 30.2734 32.0224 30.0769 31.9052C26.8133 29.9587 21.7356 31.4412 18.668 33.6167M29.9571 35.1034C29.9145 35.1125 29.8718 35.1174 29.8293 35.1174M29.8293 35.1174C29.2187 35.18 28.5043 35.1962 27.7117 35.1214" stroke="#008037" stroke-width="1.5" stroke-linecap="round"/>
</svg>
