<svg width="56" height="55" viewBox="0 0 56 55" fill="none" xmlns="http://www.w3.org/2000/svg">
<rect x="0.5" width="55" height="55" rx="9.02597" fill="#CDEEDB"/>
<path d="M39.6654 39.1667H16.332" stroke="#008037" stroke-width="1.5" stroke-linecap="round"/>
<path d="M38.5 39.1667V30.4167C38.5 29.4502 37.7165 28.6667 36.75 28.6667H33.25C32.2835 28.6667 31.5 29.4502 31.5 30.4167V39.1667" stroke="#008037" stroke-width="1.5"/>
<path d="M31.5 39.1667V19.3333C31.5 17.6834 31.5 16.8585 30.9874 16.3459C30.4749 15.8333 29.6499 15.8333 28 15.8333C26.3501 15.8333 25.5251 15.8333 25.0126 16.3459C24.5 16.8585 24.5 17.6834 24.5 19.3333V39.1667" stroke="#008037" stroke-width="1.5"/>
<path d="M24.5 39.1667V24.5833C24.5 23.6168 23.7165 22.8333 22.75 22.8333H19.25C18.2835 22.8333 17.5 23.6168 17.5 24.5833V39.1667" stroke="#008037" stroke-width="1.5"/>
</svg>
