<svg width="52" height="48" viewBox="0 0 52 48" fill="none" xmlns="http://www.w3.org/2000/svg">
<rect opacity="0.2" width="52" height="48" rx="10" fill="#008037"/>
<path d="M28.5 31.5H23.5M28.5 31.5C28.5 30.7865 28.5 30.4297 28.5381 30.193C28.6609 29.4296 28.6824 29.3815 29.1692 28.7807C29.3201 28.5945 29.8805 28.0927 31.0012 27.0892C32.5349 25.7159 33.5 23.7206 33.5 21.5C33.5 17.3579 30.1421 14 26 14C21.8579 14 18.5 17.3579 18.5 21.5C18.5 23.7206 19.4651 25.7159 20.9988 27.0892C22.1195 28.0927 22.6799 28.5945 22.8308 28.7807C23.3176 29.3815 23.3391 29.4296 23.4619 30.193C23.5 30.4297 23.5 30.7865 23.5 31.5M28.5 31.5C28.5 32.4346 28.5 32.9019 28.299 33.25C28.1674 33.478 27.978 33.6674 27.75 33.799C27.4019 34 26.9346 34 26 34C25.0654 34 24.5981 34 24.25 33.799C24.022 33.6674 23.8326 33.478 23.701 33.25C23.5 32.9019 23.5 32.4346 23.5 31.5" stroke="#008037" stroke-width="1.5"/>
<path d="M26.7872 20.5L24.6443 23.5H27.6443L25.5015 26.5" stroke="#008037" stroke-width="1.5" stroke-linecap="round" stroke-linejoin="round"/>
</svg>
