<svg width="56" height="55" viewBox="0 0 56 55" fill="none" xmlns="http://www.w3.org/2000/svg">
<rect x="0.5" width="55" height="55" rx="9.02597" fill="#CDEEDB"/>
<path d="M22.1654 27.5H20.9987C18.7988 27.5 17.6989 27.5 17.0154 28.1834C16.332 28.8668 16.332 29.9668 16.332 32.1667V34.5C16.332 36.6999 16.332 37.7998 17.0154 38.4832C17.6989 39.1667 18.7988 39.1667 20.9987 39.1667H23.332C25.5319 39.1667 26.6319 39.1667 27.3153 38.4832C27.9987 37.7998 27.9987 36.6999 27.9987 34.5V33.3333" stroke="#008037" stroke-width="1.5"/>
<path d="M28.0013 21.6667H26.8346C24.6347 21.6667 23.5348 21.6667 22.8514 22.3501C22.168 23.0335 22.168 24.1334 22.168 26.3333V28.6667C22.168 30.8665 22.168 31.9665 22.8514 32.6499C23.5348 33.3333 24.6347 33.3333 26.8346 33.3333H29.168C31.3679 33.3333 32.4678 33.3333 33.1512 32.6499C33.8346 31.9665 33.8346 30.8665 33.8346 28.6667V27.5" stroke="#008037" stroke-width="1.5"/>
<path d="M28 20.5C28 18.3001 28 17.2002 28.6834 16.5168C29.3668 15.8333 30.4668 15.8333 32.6667 15.8333H35C37.1999 15.8333 38.2998 15.8333 38.9832 16.5168C39.6667 17.2002 39.6667 18.3001 39.6667 20.5V22.8333C39.6667 25.0332 39.6667 26.1332 38.9832 26.8166C38.2998 27.5 37.1999 27.5 35 27.5H32.6667C30.4668 27.5 29.3668 27.5 28.6834 26.8166C28 26.1332 28 25.0332 28 22.8333V20.5Z" stroke="#008037" stroke-width="1.5"/>
</svg>
