<svg width="56" height="55" viewBox="0 0 56 55" fill="none" xmlns="http://www.w3.org/2000/svg">
<rect x="0.5" width="55" height="55" rx="9.02597" fill="#CDEEDB"/>
<path d="M17.5 27.5C17.5 31.8998 17.5 36.433 19.0377 37.7998C20.5754 39.1667 23.0503 39.1667 28 39.1667C32.9497 39.1667 35.4246 39.1667 36.9623 37.7998C38.5 36.433 38.5 31.8998 38.5 27.5" stroke="#008037" stroke-width="1.5"/>
<path d="M31.1024 30.0689L38.1109 27.9664C38.8056 27.7579 39.153 27.6537 39.3734 27.4039C39.4164 27.3553 39.4552 27.3031 39.4895 27.248C39.6654 26.9651 39.6654 26.6024 39.6654 25.8771C39.6654 23.0186 39.6654 21.5893 38.8802 20.6244C38.7293 20.4389 38.5598 20.2694 38.3743 20.1185C37.4094 19.3333 35.9801 19.3333 33.1216 19.3333H22.8758C20.0173 19.3333 18.588 19.3333 17.6231 20.1185C17.4376 20.2694 17.2681 20.4389 17.1172 20.6244C16.332 21.5893 16.332 23.0186 16.332 25.8771C16.332 26.6024 16.332 26.9651 16.5079 27.248C16.5422 27.3031 16.581 27.3553 16.6239 27.4039C16.8444 27.6537 17.1917 27.7579 17.8865 27.9664L24.895 30.0689" stroke="#008037" stroke-width="1.5"/>
<path d="M21.582 19.3333C22.5427 19.309 23.5178 18.6974 23.8447 17.7937C23.8548 17.7659 23.8651 17.735 23.8857 17.6731L23.9156 17.5833C23.9648 17.4357 23.9895 17.3618 24.0158 17.2963C24.352 16.46 25.1399 15.8921 26.0397 15.8376C26.1101 15.8333 26.188 15.8333 26.3436 15.8333H29.6543C29.81 15.8333 29.8878 15.8333 29.9582 15.8376C30.858 15.8921 31.6459 16.46 31.9821 17.2963C32.0085 17.3618 32.0331 17.4357 32.0823 17.5833L32.1122 17.6731C32.1327 17.7346 32.1432 17.766 32.1532 17.7937C32.4801 18.6974 33.4547 19.309 34.4154 19.3333" stroke="#008037" stroke-width="1.5"/>
<path d="M30.332 28.0833H25.6654C25.3432 28.0833 25.082 28.3445 25.082 28.6667V31.1884C25.082 31.4269 25.2273 31.6414 25.4487 31.73L26.2655 32.0567C27.3781 32.5018 28.6193 32.5018 29.7319 32.0567L30.5487 31.73C30.7701 31.6414 30.9154 31.4269 30.9154 31.1884V28.6667C30.9154 28.3445 30.6542 28.0833 30.332 28.0833Z" stroke="#008037" stroke-width="1.5" stroke-linecap="round"/>
</svg>
