<svg width="55" height="55" viewBox="0 0 55 55" fill="none" xmlns="http://www.w3.org/2000/svg">
<rect width="55" height="55" rx="9.02597" fill="#CDEEDB"/>
<path d="M20.4987 18.1667C20.4987 19.4553 19.454 20.5 18.1654 20.5C16.8767 20.5 15.832 19.4553 15.832 18.1667C15.832 16.878 16.8767 15.8333 18.1654 15.8333C19.454 15.8333 20.4987 16.878 20.4987 18.1667Z" stroke="#008037" stroke-width="1.5"/>
<path d="M20.4987 36.8333C20.4987 38.122 19.454 39.1667 18.1654 39.1667C16.8767 39.1667 15.832 38.122 15.832 36.8333C15.832 35.5447 16.8767 34.5 18.1654 34.5C19.454 34.5 20.4987 35.5447 20.4987 36.8333Z" stroke="#008037" stroke-width="1.5"/>
<path d="M29.8346 36.8333C29.8346 38.122 28.79 39.1667 27.5013 39.1667C26.2126 39.1667 25.168 38.122 25.168 36.8333C25.168 35.5447 26.2126 34.5 27.5013 34.5C28.79 34.5 29.8346 35.5447 29.8346 36.8333Z" stroke="#008037" stroke-width="1.5"/>
<path d="M29.8346 18.1667C29.8346 19.4553 28.79 20.5 27.5013 20.5C26.2126 20.5 25.168 19.4553 25.168 18.1667C25.168 16.878 26.2126 15.8333 27.5013 15.8333C28.79 15.8333 29.8346 16.878 29.8346 18.1667Z" stroke="#008037" stroke-width="1.5"/>
<path d="M39.1667 18.1667C39.1667 19.4553 38.122 20.5 36.8333 20.5C35.5447 20.5 34.5 19.4553 34.5 18.1667C34.5 16.878 35.5447 15.8333 36.8333 15.8333C38.122 15.8333 39.1667 16.878 39.1667 18.1667Z" stroke="#008037" stroke-width="1.5"/>
<path d="M18.168 20.5V34.5" stroke="#008037" stroke-width="1.5" stroke-linecap="round"/>
<path d="M27.5 20.5V34.5" stroke="#008037" stroke-width="1.5" stroke-linecap="round"/>
<path d="M36.8346 20.5V22.8333C36.8346 25.0332 36.8346 26.1332 36.1512 26.8166C35.4678 27.5 34.3679 27.5 32.168 27.5H18.168" stroke="#008037" stroke-width="1.5" stroke-linecap="round"/>
</svg>
