<svg width="52" height="48" viewBox="0 0 52 48" fill="none" xmlns="http://www.w3.org/2000/svg">
<rect opacity="0.2" width="52" height="48" rx="10" fill="#008037"/>
<path d="M16 28C16 25.1716 16 23.7574 16.8787 22.8787C17.7574 22 19.1716 22 22 22H30C32.8284 22 34.2426 22 35.1213 22.8787C36 23.7574 36 25.1716 36 28C36 30.8284 36 32.2426 35.1213 33.1213C34.2426 34 32.8284 34 30 34H22C19.1716 34 17.7574 34 16.8787 33.1213C16 32.2426 16 30.8284 16 28Z" stroke="#008037" stroke-width="1.5"/>
<path d="M20 22V20C20 16.6863 22.6863 14 26 14C29.3137 14 32 16.6863 32 20V22" stroke="#008037" stroke-width="1.5" stroke-linecap="round"/>
</svg>
