<svg width="56" height="55" viewBox="0 0 56 55" fill="none" xmlns="http://www.w3.org/2000/svg">
<rect x="0.5" width="55" height="55" rx="9.02597" fill="#CDEEDB"/>
<path d="M28 24C26.067 24 24.5 22.433 24.5 20.5C24.5 18.567 26.067 17 28 17C29.933 17 31.5 18.567 31.5 20.5C31.5 22.433 29.933 24 28 24Z" stroke="#008037" stroke-width="1.5"/>
<path d="M20.418 38C18.485 38 16.918 36.433 16.918 34.5C16.918 32.567 18.485 31 20.418 31C22.351 31 23.918 32.567 23.918 34.5C23.918 36.433 22.351 38 20.418 38Z" stroke="#008037" stroke-width="1.5"/>
<path d="M35.582 38C33.649 38 32.082 36.433 32.082 34.5C32.082 32.567 33.649 31 35.582 31C37.515 31 39.082 32.567 39.082 34.5C39.082 36.433 37.515 38 35.582 38Z" stroke="#008037" stroke-width="1.5"/>
<path d="M37.3346 28.6667C37.3346 25.8791 36.1125 23.3769 34.1749 21.6667M18.668 28.6667C18.668 25.8791 19.8901 23.3769 21.8277 21.6667M25.668 37.706C26.4137 37.8979 27.1956 38 28.0013 38C28.807 38 29.5889 37.8979 30.3346 37.706" stroke="#008037" stroke-width="1.5" stroke-linecap="round"/>
</svg>
