<svg width="52" height="48" viewBox="0 0 52 48" fill="none" xmlns="http://www.w3.org/2000/svg">
<rect opacity="0.2" width="52" height="48" rx="10" fill="#008037"/>
<path d="M28.381 21.0272C28.9767 20.8191 29.6178 20.7059 30.2857 20.7059C30.9404 20.7059 31.5693 20.8147 32.1551 21.015M21.1162 23.6089C20.8475 23.5567 20.5698 23.5294 20.2857 23.5294C17.9188 23.5294 16 25.4256 16 27.7647C16 30.1038 17.9188 32 20.2857 32H30.2857C33.4416 32 36 29.4717 36 26.3529C36 23.8811 34.393 21.7802 32.1551 21.015M21.1162 23.6089C20.8871 22.9978 20.7619 22.3369 20.7619 21.6471C20.7619 18.5283 23.3203 16 26.4762 16C29.4159 16 31.8371 18.1937 32.1551 21.015M21.1162 23.6089C21.6806 23.7184 22.2053 23.9374 22.6667 24.2426" stroke="#008037" stroke-width="1.5" stroke-linecap="round"/>
</svg>
