<svg width="52" height="48" viewBox="0 0 52 48" fill="none" xmlns="http://www.w3.org/2000/svg">
<rect opacity="0.2" width="52" height="48" rx="10" fill="#008037"/>
<path d="M16 24.0261C16 29.1723 19.8671 33.413 24.8468 33.9863C25.5816 34.0709 26.2938 33.7576 26.8168 33.2333C27.4703 32.5781 27.4703 31.5159 26.8168 30.8607C26.2938 30.3364 25.8674 29.5541 26.2619 28.9268C27.8385 26.4192 36 32.178 36 24.0261C36 18.4888 31.5228 14 26 14C20.4772 14 16 18.4888 16 24.0261Z" stroke="#008037" stroke-width="1.5"/>
<circle cx="31.5" cy="23.5" r="1.5" stroke="#008037" stroke-width="1.5"/>
<circle cx="20.5" cy="23.5" r="1.5" stroke="#008037" stroke-width="1.5"/>
<path d="M25.0859 18.9998C25.0859 19.8282 24.4144 20.4998 23.5859 20.4998C22.7575 20.4998 22.0859 19.8282 22.0859 18.9998C22.0859 18.1713 22.7575 17.4998 23.5859 17.4998C24.4144 17.4998 25.0859 18.1713 25.0859 18.9998Z" stroke="#008037" stroke-width="1.5"/>
<path d="M30 19C30 19.8284 29.3284 20.5 28.5 20.5C27.6716 20.5 27 19.8284 27 19C27 18.1716 27.6716 17.5 28.5 17.5C29.3284 17.5 30 18.1716 30 19Z" stroke="#008037" stroke-width="1.5"/>
</svg>
