<svg width="52" height="48" viewBox="0 0 52 48" fill="none" xmlns="http://www.w3.org/2000/svg">
<rect opacity="0.2" width="52" height="48" rx="10" fill="#008037"/>
<path d="M20.2221 16.601C20.6667 16.304 21.1334 16.0464 21.6171 15.8298C22.989 15.2154 23.6749 14.9082 24.5875 15.4994C25.5 16.0906 25.5 17.0604 25.5 19V20.5C25.5 22.3856 25.5 23.3284 26.0858 23.9142C26.6716 24.5 27.6144 24.5 29.5 24.5H31C32.9396 24.5 33.9094 24.5 34.5006 25.4125C35.0918 26.3251 34.7846 27.011 34.1702 28.3829C33.9536 28.8666 33.696 29.3334 33.399 29.7779C32.3551 31.3402 30.8714 32.5578 29.1355 33.2769C27.3996 33.9959 25.4895 34.184 23.6466 33.8175C21.8038 33.4509 20.1111 32.5461 18.7825 31.2175C17.4539 29.8889 16.5491 28.1962 16.1825 26.3534C15.816 24.5105 16.0041 22.6004 16.7231 20.8645C17.4422 19.1286 18.6598 17.6449 20.2221 16.601Z" stroke="#008037" stroke-width="1.5"/>
<path d="M35.446 19.069C34.6342 17.0083 32.9917 15.3658 30.931 14.554C29.3895 13.9467 28 15.3432 28 17V21C28 21.5523 28.4477 22 29 22H33C34.6569 22 36.0533 20.6106 35.446 19.069Z" stroke="#008037" stroke-width="1.5"/>
</svg>
