<svg width="52" height="48" viewBox="0 0 52 48" fill="none" xmlns="http://www.w3.org/2000/svg">
<rect opacity="0.2" width="52" height="48" rx="10" fill="#008037"/>
<path d="M32 20C32 23.3137 29.3137 26 26 26C22.6863 26 20 23.3137 20 20C20 16.6863 22.6863 14 26 14C29.3137 14 32 16.6863 32 20Z" stroke="#008037" stroke-width="1.5"/>
<path d="M20.5 22.189C17.9122 22.855 16 25.2042 16 27.9999C16 31.3136 18.6863 33.9999 22 33.9999C25.3137 33.9999 28 31.3136 28 27.9999C28 27.2452 27.8607 26.5231 27.6063 25.8578" stroke="#008037" stroke-width="1.5"/>
<path d="M26 32.4722C27.0615 33.4222 28.4633 33.9999 30 33.9999C33.3137 33.9999 36 31.3136 36 27.9999C36 25.2042 34.0878 22.855 31.5 22.189" stroke="#008037" stroke-width="1.5"/>
</svg>
