<svg width="52" height="48" viewBox="0 0 52 48" fill="none" xmlns="http://www.w3.org/2000/svg">
<rect opacity="0.2" width="52" height="48" rx="10" fill="#008037"/>
<path d="M26 21C24.3431 21 23 19.6569 23 18C23 16.3431 24.3431 15 26 15C27.6569 15 29 16.3431 29 18C29 19.6569 27.6569 21 26 21Z" stroke="#008037" stroke-width="1.5"/>
<path d="M19.5 33C17.8431 33 16.5 31.6569 16.5 30C16.5 28.3431 17.8431 27 19.5 27C21.1569 27 22.5 28.3431 22.5 30C22.5 31.6569 21.1569 33 19.5 33Z" stroke="#008037" stroke-width="1.5"/>
<path d="M32.5 33C30.8431 33 29.5 31.6569 29.5 30C29.5 28.3431 30.8431 27 32.5 27C34.1569 27 35.5 28.3431 35.5 30C35.5 31.6569 34.1569 33 32.5 33Z" stroke="#008037" stroke-width="1.5"/>
<path d="M34 25C34 22.6106 32.9525 20.4659 31.2916 19M18 25C18 22.6106 19.0475 20.4659 20.7084 19M24 32.748C24.6392 32.9125 25.3094 33 26 33C26.6906 33 27.3608 32.9125 28 32.748" stroke="#008037" stroke-width="1.5" stroke-linecap="round"/>
</svg>
