<svg width="35" height="35" viewBox="0 0 35 35" fill="none" xmlns="http://www.w3.org/2000/svg">
<path d="M10.9375 14.5833V24.7916" stroke="#2D2D2D" stroke-width="1.5" stroke-linecap="round" stroke-linejoin="round"/>
<path d="M16.7734 18.9583V24.7916M16.7734 18.9583C16.7734 16.5419 18.7321 14.5833 21.1484 14.5833C23.5648 14.5833 25.5234 16.5419 25.5234 18.9583V24.7916M16.7734 18.9583V14.5833" stroke="#2D2D2D" stroke-width="1.5" stroke-linecap="round" stroke-linejoin="round"/>
<path d="M10.9497 10.2083H10.9375" stroke="#2D2D2D" stroke-width="2.41667" stroke-linecap="round" stroke-linejoin="round"/>
<path d="M3.64453 18.2291C3.64453 11.3544 3.64453 7.91712 5.78021 5.78143C7.9159 3.64575 11.3532 3.64575 18.2279 3.64575C25.1024 3.64575 28.5398 3.64575 30.6756 5.78143C32.8112 7.91712 32.8112 11.3544 32.8112 18.2291C32.8112 25.1037 32.8112 28.541 30.6756 30.6768C28.5398 32.8124 25.1024 32.8124 18.2279 32.8124C11.3532 32.8124 7.9159 32.8124 5.78021 30.6768C3.64453 28.541 3.64453 25.1037 3.64453 18.2291Z" stroke="#2D2D2D" stroke-width="1.5" stroke-linejoin="round"/>
</svg>
